<svg id="fb" xmlns="http://www.w3.org/2000/svg" width="63.11" height="63.109" viewBox="0 0 63.11 63.109">
  <path id="Path_216" data-name="Path 216" d="M59.624,0H3.483A3.483,3.483,0,0,0,0,3.484V59.625a3.485,3.485,0,0,0,3.483,3.485H33.708V38.671H25.484V29.145h8.224V22.12c0-8.15,4.976-12.59,12.248-12.59A68.211,68.211,0,0,1,53.3,9.9v8.519l-5.044,0c-3.954,0-4.717,1.88-4.717,4.637v6.08h9.433l-1.233,9.525h-8.2V63.107H59.623a3.487,3.487,0,0,0,3.486-3.482V3.482A3.484,3.484,0,0,0,59.624,0Z" transform="translate(0 -0.001)" fill="#6e8295"/>
</svg>
