<svg xmlns="http://www.w3.org/2000/svg" width="73.341" height="45.25" viewBox="0 0 73.341 45.25">
  <g id="Group_16" data-name="Group 16" transform="translate(-387.962 -6866)">
    <g id="Group_17" data-name="Group 17" transform="translate(387.962 6866)">
      <path id="Path_59" data-name="Path 59" d="M302.222,180.474H293.9a.83.83,0,1,1,0-1.659h7.5v-16.7a.83.83,0,1,1,1.659,0v17.533a.83.83,0,0,1-.83.83Zm-22.634,0H257.847a.83.83,0,0,1-.83-.83V147.1a.83.83,0,1,1,1.659,0v31.71h20.911a.83.83,0,0,1,0,1.659Z" transform="translate(-232.788 -141.603)" fill="#0a2c4a"/>
      <path id="Path_60" data-name="Path 60" d="M302.222,340.884H290.741a.83.83,0,0,1,0-1.659h11.481a.83.83,0,0,1,0,1.659Zm-19.479,0h-24.9a.83.83,0,0,1,0-1.659h24.9a.83.83,0,0,1,0,1.659Z" transform="translate(-232.788 -308.825)" fill="#0a2c4a"/>
      <path id="Path_61" data-name="Path 61" d="M288.235,133.1a.825.825,0,0,1-.333-.07l-35.2-15.465H240.325a.83.83,0,0,1-.83-.83v-4.671a.83.83,0,0,1,.83-.83h13.53a.838.838,0,0,1,.334.07l36.259,15.929a.829.829,0,0,1,.426,1.093l-1.879,4.276a.83.83,0,0,1-.76.5Zm-47.08-17.194h11.72a.838.838,0,0,1,.334.07l34.6,15.2,1.211-2.757L253.68,112.9H241.154v3.012Z" transform="translate(-217.602 -111.236)" fill="#0a2c4a"/>
      <path id="Path_62" data-name="Path 62" d="M100.363,210.507H95.346a.83.83,0,1,1,0-1.659h5.017a.83.83,0,0,1,0,1.659Zm-19.326,0h-4.9a.83.83,0,0,1-.83-.83v-16.6a.83.83,0,0,1,.684-.817l4.226-.755,3.692-10.033a.829.829,0,0,1,.779-.543h15.678a.83.83,0,1,1,0,1.659h-15.1l-3.657,9.937a.83.83,0,0,1-.633.53l-4.011.716v15.075h4.074a.83.83,0,1,1,0,1.659Z" transform="translate(-75.304 -171.635)" fill="#0a2c4a"/>
      <path id="Path_63" data-name="Path 63" d="M125.239,193.066h-13.9a.83.83,0,1,1,0-1.659h13.072v-9.65a.83.83,0,1,1,1.659,0v10.48a.83.83,0,0,1-.83.83Z" transform="translate(-105.813 -171.635)" fill="#0a2c4a"/>
      <path id="Path_64" data-name="Path 64" d="M119.751,346.2a8.031,8.031,0,1,1,8.031-8.031A8.04,8.04,0,0,1,119.751,346.2Zm0-14.4a6.372,6.372,0,1,0,6.372,6.372A6.379,6.379,0,0,0,119.751,331.8Z" transform="translate(-106.864 -300.952)" fill="#0a2c4a"/>
      <path id="Path_65" data-name="Path 65" d="M427.751,346.2a8.031,8.031,0,1,1,8.031-8.031A8.04,8.04,0,0,1,427.751,346.2Zm0-14.4a6.372,6.372,0,1,0,6.372,6.372A6.379,6.379,0,0,0,427.751,331.8Z" transform="translate(-373.796 -300.952)" fill="#0a2c4a"/>
      <path id="Path_66" data-name="Path 66" d="M141.887,364.924a4.625,4.625,0,1,1,4.625-4.625A4.63,4.63,0,0,1,141.887,364.924Zm0-7.591a2.966,2.966,0,1,0,2.966,2.966A2.969,2.969,0,0,0,141.887,357.334Z" transform="translate(-129.001 -323.081)" fill="#0a2c4a"/>
      <path id="Path_67" data-name="Path 67" d="M449.887,364.924a4.625,4.625,0,1,1,4.625-4.625A4.63,4.63,0,0,1,449.887,364.924Zm0-7.591a2.966,2.966,0,1,0,2.966,2.966A2.969,2.969,0,0,0,449.887,357.334Z" transform="translate(-395.933 -323.081)" fill="#0a2c4a"/>
      <path id="Path_68" data-name="Path 68" d="M200.065,288.894h-2.39a.83.83,0,1,1,0-1.659h2.39a.83.83,0,1,1,0,1.659Z" transform="translate(-180.639 -263.767)" fill="#0a2c4a"/>
    </g>
  </g>
</svg>
