<svg id="Group_6" data-name="Group 6" xmlns="http://www.w3.org/2000/svg" width="129.055" height="53.79" viewBox="0 0 129.055 53.79">
  <g id="Group_4" data-name="Group 4" transform="translate(83.435 33.148)">
    <path id="Path_2" data-name="Path 2" d="M767.9,737.246l5.923-20.495,6.091.022a4.205,4.205,0,0,1,2.62.706,2.868,2.868,0,0,1,1.042,2.018,8.293,8.293,0,0,1-.389,3.19,9.16,9.16,0,0,1-1.694,3.438,5.929,5.929,0,0,1-2.416,1.751,8.1,8.1,0,0,1-2.923.508l-1.778-.007-2.567,8.881Zm7.326-11.8,1.374.005a2.951,2.951,0,0,0,1.4-.286,2.212,2.212,0,0,0,.9-.921,8.008,8.008,0,0,0,.633-1.619,8.342,8.342,0,0,0,.324-1.569,1.2,1.2,0,0,0-.3-.989,1.861,1.861,0,0,0-1.32-.359l-1.351-.005Z" transform="translate(-767.904 -716.751)" fill="#fff"/>
    <path id="Path_3" data-name="Path 3" d="M800.267,737.365l5.924-20.495,3.887.014-5.924,20.495Z" transform="translate(-787.754 -716.824)" fill="#fff"/>
    <path id="Path_4" data-name="Path 4" d="M816.7,737.426l5.924-20.495,6.091.023a4.2,4.2,0,0,1,2.62.706,2.867,2.867,0,0,1,1.042,2.017,8.3,8.3,0,0,1-.389,3.19,9.163,9.163,0,0,1-1.694,3.439,5.927,5.927,0,0,1-2.416,1.751,8.1,8.1,0,0,1-2.923.509l-1.778-.007-2.567,8.881Zm7.326-11.8,1.374.005a2.956,2.956,0,0,0,1.4-.286,2.21,2.21,0,0,0,.9-.921,8.013,8.013,0,0,0,.633-1.619,8.341,8.341,0,0,0,.324-1.569,1.206,1.206,0,0,0-.3-.989,1.862,1.862,0,0,0-1.32-.359l-1.351-.005Z" transform="translate(-797.831 -716.862)" fill="#fff"/>
    <path id="Path_5" data-name="Path 5" d="M848.937,737.545l5.924-20.494,8.366.031-.833,2.884-4.455-.017-1.572,5.44,3.437.013-.841,2.91-3.437-.013-1.857,6.427,4.5.017-.819,2.834Z" transform="translate(-817.607 -716.935)" fill="#fff"/>
  </g>
  <path id="Path_26" data-name="Path 26" d="M634.543,691.425l-44.812,4.835,34.515,1.57Z" transform="translate(-575.184 -668.069)" fill="#fff"/>
  <path id="Path_27" data-name="Path 27" d="M593.184,659.8l-41.078,2.54,43.293,2.54Z" transform="translate(-552.106 -648.669)" fill="#fff"/>
  <path id="Path_28" data-name="Path 28" d="M642.785,660.763q-15.574-1.926-12.449-14.553,3.76-15.193,19.811-15.195h24.038l-2.648,10.7H647.5a7.452,7.452,0,0,0-4,1.231,5.277,5.277,0,0,0-2.466,3.263q-.556,2.247.9,3.049a7.139,7.139,0,0,0,3.493.8l8.321.214q16.051,0,11.814,17.121t-20.287,17.121H620.856l2.648-10.7h24.425a6.266,6.266,0,0,0,4.208-2.087,9.16,9.16,0,0,0,2.731-4.334,4.952,4.952,0,0,0,.035-2.087,7.184,7.184,0,0,0-.714-2.087,5.062,5.062,0,0,0-1.315-1.6,2.769,2.769,0,0,0-1.767-.642Z" transform="translate(-594.275 -631.016)" fill="#fff"/>
  <path id="Path_29" data-name="Path 29" d="M771.906,631.149l-24.425-.133-2.647,10.651h13.958l1.073-4.315,12.393,7.331-16.093,8.265.863-3.653H742.991l-8.75,35.356h10.7l5.826-23.541h13.724q16.05,0,19.758-14.981T771.906,631.149Z" transform="translate(-663.821 -631.016)" fill="#fff"/>
</svg>
