<svg xmlns="http://www.w3.org/2000/svg" width="54.251" height="44.546" viewBox="0 0 54.251 44.546">
  <g id="Group_19" data-name="Group 19" transform="translate(-1207.427 -7087)">
    <g id="noun-tractor-1563235" transform="translate(1207.427 7087)">
      <path id="Path_76" data-name="Path 76" d="M353.9,252.39a.605.605,0,0,1-.6-.605V251.3h0a11.33,11.33,0,0,1,.067-1.343.626.626,0,1,1,1.246.127c-.036.387-.054.774-.054,1.143v.5h0a.605.605,0,0,1-.605.641Zm9.237-12.141a.609.609,0,0,1-.139-1.21,12.2,12.2,0,0,1,1.379-.236.627.627,0,1,1,.145,1.246c-.43.054-.847.127-1.246.218Zm3.533-.266H366.3a.606.606,0,1,1,.043-1.21h.375a.63.63,0,0,1-.048,1.258Z" transform="translate(-325.823 -220.952)" fill="#0a2c4a"/>
      <path id="Path_77" data-name="Path 77" d="M348.551,251.229a1.855,1.855,0,0,1-.6-.1l-1.633-.562a1.887,1.887,0,0,1-1.173-2.383l.176-.508h0a12.542,12.542,0,0,1-3.236-2.855l-.557.272a1.882,1.882,0,0,1-2.517-.859l-.756-1.555a1.864,1.864,0,0,1,.478-2.226,1.558,1.558,0,0,1,.393-.26l.557-.272c-.067-.272-.115-.526-.151-.72v-.278a.926.926,0,0,0-.042-.308,2.938,2.938,0,0,1-.054-.52,4.561,4.561,0,0,0-.036-.5v-.581a9.035,9.035,0,0,1,.06-1.264v-.109l-.508-.176a1.888,1.888,0,0,1-1.174-2.383l.562-1.633h0a1.881,1.881,0,0,1,2.389-1.168l.508.176v-.036c.054-.1.133-.224.218-.351.139-.212.284-.417.43-.605s.181-.236.284-.363.23-.284.357-.424a.866.866,0,0,1,.1-.109c.115-.127.23-.248.351-.369l.345-.339c.151-.145.308-.284.472-.424l-.176-.357h0a1.882,1.882,0,0,1,.835-2.547l1.543-.756a1.887,1.887,0,0,1,2.517.859l.109.224.424-.109a13.872,13.872,0,0,1,1.373-.236h2.39l.472.042.176-.508h0a1.882,1.882,0,0,1,2.39-1.168l1.627.557a1.888,1.888,0,0,1,1.174,2.384l-.176.514h0a12.368,12.368,0,0,1,3.224,2.843l.792-.387h0a1.88,1.88,0,0,1,2.492.774l.756,1.555a1.881,1.881,0,0,1-.859,2.51l-.786.387a12.2,12.2,0,0,1,.272,4.307l.508.176a1.882,1.882,0,0,1,1.174,2.383l-.562,1.633h0a1.881,1.881,0,0,1-2.383,1.173l-.5-.151a12.538,12.538,0,0,1-3.1,3.436l.1.205a1.882,1.882,0,0,1-.865,2.517l-1.579.756a1.882,1.882,0,0,1-2.517-.865l-.163-.333h0a12.355,12.355,0,0,1-3.98.2l-.176.508h0a1.893,1.893,0,0,1-1.766,1.27Zm-6.279-7.828a.606.606,0,0,1,.508.254,11.256,11.256,0,0,0,3.629,3.182.605.605,0,0,1,.29.75l-.345.992a.6.6,0,0,0,.393.792l1.633.562a.6.6,0,0,0,.768-.411l.345-.992h0a.6.6,0,0,1,.684-.417,11.187,11.187,0,0,0,4.5-.224.6.6,0,0,1,.72.332l.387.78h0a.606.606,0,0,0,.841.29l1.543-.756h0a.679.679,0,0,0,.315-.841l-.333-.671h0a.6.6,0,0,1,.206-.792,11.246,11.246,0,0,0,3.424-3.787.605.605,0,0,1,.75-.29l.992.345a.635.635,0,0,0,.792-.393l.562-1.633h0a.635.635,0,0,0-.387-.792l-.992-.345h0a.605.605,0,0,1-.417-.69,10.987,10.987,0,0,0-.3-4.8.605.605,0,0,1,.327-.738l1.252-.605h0a.6.6,0,0,0,.284-.835l-.792-1.506a.605.605,0,0,0-.841-.284l-1.252.605h0a.605.605,0,0,1-.781-.194,11.149,11.149,0,0,0-3.629-3.17.6.6,0,0,1-.29-.75l.345-1h0a.605.605,0,0,0-.393-.792l-1.627-.557a.588.588,0,0,0-.8.357l-.339.992a.6.6,0,0,1-.684.417c-.314-.049-.605-.078-.829-.1h-2.19c-.405.054-.8.121-1.21.205l-.406.1-.351.1-.133.036h0a.605.605,0,0,1-.714-.333l-.339-.7h0a.641.641,0,0,0-.841-.29l-1.543.756a.605.605,0,0,0-.29.841l.393.8h0a.635.635,0,0,1-.181.786l-.321.254c-.151.127-.308.26-.454.405l-.314.308c-.115.115-.224.23-.332.357l-.03.03q-.175.194-.339.393c-.1.115-.176.224-.26.332s-.266.351-.381.533c-.067.1-.127.2-.187.3s-.151.248-.212.357l-.054.1h0a.606.606,0,0,1-.744.279l-.992-.339a.579.579,0,0,0-.792.357l-.562,1.633h0a.605.605,0,0,0,.393.8l.986.339h0a.605.605,0,0,1,.417.684c0,.187-.054.381-.073.569-.036.387-.054.768-.054,1.137v.962a3.694,3.694,0,0,0,.054.49c.024.163,0,.181.036.272l.042.266c.054.3.1.526.163.744s.054.236.091.339a.6.6,0,0,1-.327.75l-1.022.5a.373.373,0,0,0-.1.067.6.6,0,0,0-.182.768l.756,1.555h0a.605.605,0,0,0,.841.284l1.022-.345a.61.61,0,0,1,.278-.073Zm1.173-13.913.091-.109,8.342,11.735h0a1.318,1.318,0,1,0,0-.03Zm0-6.969h0a2.857,2.857,0,1,0,1.508.436,2.862,2.862,0,0,0-1.508-.436Z" transform="translate(-311.887 -206.683)" fill="#0a2c4a"/>
      <path id="Path_78" data-name="Path 78" d="M435.224,324.385a4.119,4.119,0,1,1,2.39-.769,4.113,4.113,0,0,1-2.39.769Zm0-6.969a2.855,2.855,0,1,0,1.508.435A2.855,2.855,0,0,0,435.224,317.416Z" transform="translate(-395.233 -289.983)" fill="#0a2c4a"/>
      <path id="Path_79" data-name="Path 79" d="M107.572,328.042a8.632,8.632,0,1,1,6.1-2.526,8.618,8.618,0,0,1-6.1,2.526Zm0-15.994a3.076,3.076,0,1,1,0,.006Z" transform="translate(-98.958 -285.201)" fill="#0a2c4a"/>
      <g id="Group_19-2" data-name="Group 19" transform="translate(8.008 15.529)">
        <path id="Path_80" data-name="Path 80" d="M192.326,236.884H181.7a.6.6,0,0,1-.6-.605,7.381,7.381,0,0,0-7.392-7.392.6.6,0,0,1-.6-.6v-8.717a2,2,0,0,1,2-2h29.471a2,2,0,0,1,2,2v.877h0a.631.631,0,0,1-.672.629H203.74c-.406.054-.8.121-1.21.205l-.406.1-.351.1-.133.036h0a.6.6,0,0,1-.714-.333l-.339-.7a.641.641,0,0,0-.841-.29l-1.543.756a.605.605,0,0,0-.29.841l.393.8a.6.6,0,0,1-.163.762l-.078.067-.236.2c-.176.145-.327.278-.472.417s-.205.194-.3.29-.242.248-.345.363l-.036.042q-.175.194-.339.393c-.1.115-.176.224-.26.333s-.266.351-.381.533c-.067.1-.127.2-.187.3s-.151.248-.212.357l-.054.1h0a.605.605,0,0,1-.744.278l-.992-.339a.579.579,0,0,0-.792.357l-.562,1.633a.6.6,0,0,0,.393.8l.986.339a.605.605,0,0,1,.417.684c0,.187-.054.381-.073.569-.036.387-.054.768-.054,1.137v.962a3.694,3.694,0,0,0,.054.49c.024.163,0,.181.036.272l.042.266c.054.3.1.526.163.744s.054.236.091.339h0a.605.605,0,0,1-.327.75l-1.022.5h0a.383.383,0,0,0-.1.067.606.606,0,0,1-.43.3ZM182.3,235.632h9.812a1.7,1.7,0,0,1,.205-.115l.557-.272c-.067-.272-.115-.526-.151-.72v-.278a.926.926,0,0,0-.042-.308,2.939,2.939,0,0,1-.054-.52,4.561,4.561,0,0,0-.036-.5v-.581a9.04,9.04,0,0,1,.06-1.264v-.109l-.508-.176a1.888,1.888,0,0,1-1.174-2.384l.562-1.633h0a1.88,1.88,0,0,1,2.389-1.168l.508.176v-.036c.054-.1.133-.224.218-.351.139-.212.284-.417.43-.605s.181-.236.284-.363.23-.284.357-.424a.83.83,0,0,1,.1-.1q.172-.2.363-.381c.127-.121.212-.218.339-.332s.308-.284.472-.424l-.176-.357a1.881,1.881,0,0,1,.835-2.522l1.543-.756a1.887,1.887,0,0,1,2.517.859l.109.224.424-.109a13.879,13.879,0,0,1,1.373-.236h1.718v-.218h0a.75.75,0,0,0-.75-.75H175.073a.744.744,0,0,0-.744.75v8.009a8.638,8.638,0,0,1,7.973,7.979Z" transform="translate(-173.096 -217.563)" fill="#0a2c4a"/>
      </g>
      <path id="Path_81" data-name="Path 81" d="M304.99,91.959a.6.6,0,0,1-.605-.6.744.744,0,0,0-.744-.744H284.749a.6.6,0,0,1-.6-.6v-6.37a9.842,9.842,0,0,1,9.806-9.83h11.04a.605.605,0,0,1,.6.6V91.329a.6.6,0,0,1-.6.629Zm-19.611-2.625h18.245a1.989,1.989,0,0,1,.744.145V75.057H293.95a8.585,8.585,0,0,0-8.572,8.578Z" transform="translate(-264.14 -73.805)" fill="#0a2c4a"/>
      <path id="Path_82" data-name="Path 82" d="M210.088,124.5h-2.68a.605.605,0,0,1-.6-.605v-11.5a.6.6,0,0,1,.6-.569h4.283a1.918,1.918,0,0,1,1.912,1.911v.1a1.918,1.918,0,0,1-1.912,1.911h-.98v8.124a.6.6,0,0,1-.623.623Zm-2.051-1.252h1.422v-8.112a.605.605,0,0,1,.605-.605h1.615a.658.658,0,0,0,.659-.659v-.1a.659.659,0,0,0-.635-.714h-3.666Z" transform="translate(-195.154 -107.718)" fill="#0a2c4a"/>
      <path id="Path_83" data-name="Path 83" d="M435.224,324.385a4.119,4.119,0,1,1,2.39-.769,4.113,4.113,0,0,1-2.39.769Zm0-6.969a2.855,2.855,0,1,0,1.508.435A2.855,2.855,0,0,0,435.224,317.416Z" transform="translate(-395.233 -289.983)" fill="#0a2c4a"/>
      <path id="Path_84" data-name="Path 84" d="M150.38,365.706A3.436,3.436,0,1,1,152.8,364.7a3.43,3.43,0,0,1-2.424,1.006Zm0-5.607a2.177,2.177,0,1,0,1.54.638A2.177,2.177,0,0,0,150.38,360.1Z" transform="translate(-141.766 -328.056)" fill="#0a2c4a"/>
      <path id="Path_85" data-name="Path 85" d="M267.817,268.429h-4.58a.626.626,0,0,1,0-1.252h4.58a.626.626,0,0,1,0,1.252Z" transform="translate(-244.934 -246.288)" fill="#0a2c4a"/>
      <path id="Path_86" data-name="Path 86" d="M267.817,297.159h-4.58a.626.626,0,0,1,0-1.252h4.58a.626.626,0,0,1,0,1.252Z" transform="translate(-244.934 -271.914)" fill="#0a2c4a"/>
    </g>
  </g>
</svg>
