<svg xmlns="http://www.w3.org/2000/svg" width="45" height="45" viewBox="0 0 45 45">
  <g id="Linked_In" data-name="Linked In" transform="translate(67.5 67.5)">
    <g id="Group_27" data-name="Group 27" transform="translate(-67.5 -67.5)">
      <circle id="Ellipse_2" data-name="Ellipse 2" cx="22.5" cy="22.5" r="22.5" fill="#99abba"/>
      <g id="Group_26" data-name="Group 26" transform="translate(10.582 9.114)">
        <g id="Group_25" data-name="Group 25">
          <path id="Path_220" data-name="Path 220" d="M61.6,52.337c.333-.374.607-.753.949-1.075a5.2,5.2,0,0,1,3.744-1.477,8.667,8.667,0,0,1,2.354.287,4.6,4.6,0,0,1,3.267,3.436,14.4,14.4,0,0,1,.435,3.937c0,2.8-.008,5.6,0,8.394,0,.262-.073.331-.331.329q-2.162-.018-4.325,0c-.254,0-.308-.077-.308-.316q.012-3.994,0-7.987a7.187,7.187,0,0,0-.232-1.983A2.23,2.23,0,0,0,64.7,54.143a2.68,2.68,0,0,0-2.816,2.675,9.989,9.989,0,0,0-.076,1.249c0,2.589,0,5.179.007,7.768,0,.258-.064.334-.327.332q-2.178-.019-4.356,0c-.233,0-.3-.061-.3-.3q.01-7.69,0-15.38c0-.254.083-.312.323-.311q2.068.015,4.137,0c.254,0,.319.08.314.32C61.592,51.111,61.6,51.724,61.6,52.337Z" transform="translate(-48.344 -42.227)" fill="#0a2c4a"/>
          <path id="Path_221" data-name="Path 221" d="M34.793,59.113c0,2.536,0,5.072.006,7.609,0,.282-.069.367-.361.364-1.441-.016-2.882-.012-4.323,0-.231,0-.3-.056-.3-.295q.01-7.7,0-15.405c0-.212.051-.288.277-.287,1.462.01,2.924.012,4.386,0,.281,0,.319.106.318.347Q34.787,55.278,34.793,59.113Z" transform="translate(-29.434 -43.144)" fill="#0a2c4a"/>
          <path id="Path_222" data-name="Path 222" d="M34.3,27.465A2.878,2.878,0,1,1,31.428,24.6,2.888,2.888,0,0,1,34.3,27.465Z" transform="translate(-28.545 -24.601)" fill="#0a2c4a"/>
        </g>
      </g>
    </g>
  </g>
</svg>
