<svg id="logo" xmlns="http://www.w3.org/2000/svg" width="248" height="103.366" viewBox="0 0 248 103.366">
  <g id="Group_6" data-name="Group 6">
    <g id="Group_4" data-name="Group 4" transform="translate(160.334 63.7)">
      <path id="Path_2" data-name="Path 2" d="M767.9,756.135l11.383-39.384,11.7.043a8.081,8.081,0,0,1,5.035,1.357,5.512,5.512,0,0,1,2,3.878,15.932,15.932,0,0,1-.747,6.13,17.6,17.6,0,0,1-3.255,6.607,11.394,11.394,0,0,1-4.642,3.366,15.568,15.568,0,0,1-5.616.977l-3.416-.013-4.933,17.067Zm14.078-22.679,2.641.01a5.67,5.67,0,0,0,2.689-.549,4.25,4.25,0,0,0,1.72-1.771,15.39,15.39,0,0,0,1.217-3.11,16.028,16.028,0,0,0,.622-3.016,2.315,2.315,0,0,0-.568-1.9,3.577,3.577,0,0,0-2.536-.691l-2.6-.01Z" transform="translate(-767.904 -716.751)" fill="#0a2c4a"/>
      <path id="Path_3" data-name="Path 3" d="M800.267,756.254,811.65,716.87l7.469.027-11.383,39.384Z" transform="translate(-776.222 -716.782)" fill="#0a2c4a"/>
      <path id="Path_4" data-name="Path 4" d="M816.7,756.315l11.383-39.384,11.7.044a8.076,8.076,0,0,1,5.034,1.357,5.508,5.508,0,0,1,2,3.877,15.943,15.943,0,0,1-.747,6.13,17.608,17.608,0,0,1-3.255,6.608,11.39,11.39,0,0,1-4.642,3.365,15.574,15.574,0,0,1-5.616.978l-3.416-.013-4.933,17.066Zm14.078-22.679,2.641.01a5.682,5.682,0,0,0,2.69-.55,4.247,4.247,0,0,0,1.72-1.77,15.4,15.4,0,0,0,1.217-3.111,16.038,16.038,0,0,0,.622-3.015,2.317,2.317,0,0,0-.568-1.9,3.578,3.578,0,0,0-2.536-.69l-2.6-.01Z" transform="translate(-780.444 -716.797)" fill="#0a2c4a"/>
      <path id="Path_5" data-name="Path 5" d="M848.937,756.434l11.383-39.383,16.077.06-1.6,5.543-8.562-.032-3.022,10.454,6.6.025-1.617,5.592-6.6-.025-3.569,12.35,8.653.032-1.574,5.446Z" transform="translate(-788.731 -716.828)" fill="#0a2c4a"/>
    </g>
    <path id="Path_26" data-name="Path 26" d="M675.844,691.425l-86.113,9.291,66.326,3.018Z" transform="translate(-561.777 -646.542)" fill="#0a2c4a"/>
    <path id="Path_27" data-name="Path 27" d="M631.044,659.8l-78.937,4.88,83.195,4.88Z" transform="translate(-552.106 -638.413)" fill="#0a2c4a"/>
    <path id="Path_28" data-name="Path 28" d="M663,688.18q-29.928-3.7-23.923-27.965,7.225-29.2,38.07-29.2h46.194l-5.089,20.563H672.054a14.32,14.32,0,0,0-7.679,2.365,10.141,10.141,0,0,0-4.74,6.271q-1.068,4.319,1.738,5.86a13.719,13.719,0,0,0,6.712,1.542l15.99.412q30.844,0,22.7,32.9t-38.986,32.9H620.856l5.088-20.563H672.88q3.9,0,8.087-4.01a17.6,17.6,0,0,0,5.248-8.328,9.515,9.515,0,0,0,.068-4.01,13.8,13.8,0,0,0-1.373-4.01,9.727,9.727,0,0,0-2.526-3.084,5.322,5.322,0,0,0-3.4-1.233Z" transform="translate(-569.776 -631.016)" fill="#0a2c4a"/>
    <path id="Path_29" data-name="Path 29" d="M806.621,631.271l-46.936-.255L754.6,651.484h26.822l2.062-8.292L807.3,657.28l-30.925,15.882,1.658-7.02H751.055l-16.814,67.942H754.8L766,688.847h26.374q30.843,0,37.968-28.788T806.621,631.271Z" transform="translate(-598.918 -631.016)" fill="#0a2c4a"/>
  </g>
</svg>
