<svg xmlns="http://www.w3.org/2000/svg" width="14.286" height="11.145" viewBox="0 0 14.286 11.145">
  <g id="mail" transform="matrix(0.951, -0.309, 0.309, 0.951, -310.581, -922.871)">
    <path id="Path_78" data-name="Path 78" d="M9.922,977.362a1.158,1.158,0,0,0-.506.1l5.542,4.52a.626.626,0,0,0,.621,0l5.542-4.52a1.1,1.1,0,0,0-.487-.1Zm-.879.573A1.347,1.347,0,0,0,9,978.28v5.81a1.246,1.246,0,0,0,.062.411l3.923-3.335Zm12.456,0-3.947,3.23,3.923,3.335a1.307,1.307,0,0,0,.062-.425v-5.81A1.317,1.317,0,0,0,21.5,977.936Zm-8.027,3.622-3.98,3.383a1.283,1.283,0,0,0,.44.067H20.625a1.23,1.23,0,0,0,.42-.067l-3.98-3.383c-.4.32-.8.658-1.2.97a1.327,1.327,0,0,1-1.194,0C14.271,982.214,13.87,981.88,13.472,981.557Z" fill="#fff"/>
  </g>
</svg>
