<svg xmlns="http://www.w3.org/2000/svg" width="45" height="45" viewBox="0 0 45 45">
  <g id="twitter" transform="translate(-1131 -7865)">
    <g id="Twitter-2" data-name="Twitter" transform="translate(1131 7865)">
      <g id="Group_30" data-name="Group 30" transform="translate(0 0)">
        <circle id="Ellipse_3" data-name="Ellipse 3" cx="22.5" cy="22.5" r="22.5" fill="#99abba"/>
        <g id="Group_29" data-name="Group 29" transform="translate(9.113 12.032)">
          <g id="Group_28" data-name="Group 28">
            <path id="Path_223" data-name="Path 223" d="M35.3,58.423c10.7,0,16.555-8.866,16.555-16.555q0-.378-.017-.752a11.845,11.845,0,0,0,2.9-3.012,11.614,11.614,0,0,1-3.341.916A5.839,5.839,0,0,0,53.963,35.8a11.663,11.663,0,0,1-3.694,1.412,5.824,5.824,0,0,0-9.916,5.306A16.518,16.518,0,0,1,28.36,36.441a5.823,5.823,0,0,0,1.8,7.768,5.779,5.779,0,0,1-2.635-.728c0,.024,0,.049,0,.074a5.821,5.821,0,0,0,4.668,5.7,5.813,5.813,0,0,1-2.627.1A5.825,5.825,0,0,0,35,53.4a11.674,11.674,0,0,1-7.226,2.49,11.811,11.811,0,0,1-1.388-.081A16.471,16.471,0,0,0,35.3,58.423" transform="translate(-26.386 -35.375)" fill="#0a2c4a"/>
          </g>
        </g>
      </g>
    </g>
  </g>
</svg>
