<svg xmlns="http://www.w3.org/2000/svg" width="83.008" height="46.078" viewBox="0 0 83.008 46.078">
  <g id="Group_18" data-name="Group 18" transform="translate(-820.201 -6786)">
    <path id="Path_72" data-name="Path 72" d="M482.07,370.117a4.039,4.039,0,1,0,4.039-4.039A4.043,4.043,0,0,0,482.07,370.117Zm6.76,0a2.721,2.721,0,1,1-2.721-2.721A2.724,2.724,0,0,1,488.83,370.117Z" transform="translate(395.294 6450.627)" fill="#0a2c4a"/>
    <path id="Path_73" data-name="Path 73" d="M82.358,139.592h-.573V129.315a.659.659,0,0,0-.4-.605l-5.737-2.465h0a.659.659,0,0,0-.133-.028.7.7,0,0,0-.123-.025H66.954V120.4a1.861,1.861,0,1,0-3.722,0v5.79H54.909V113.168h.2a.659.659,0,0,0,.659-.659V107.8a.659.659,0,0,0-.659-.659H44.345a.659.659,0,0,0-.659.659v2.634L38.7,126.658a.706.706,0,0,0-.01.1.611.611,0,0,0-.019.1v2.582a.659.659,0,0,0,.659.659h5.614v3.18H43.807v-1.539a.659.659,0,0,0-.659-.659H30.054a.659.659,0,1,0,0,1.317,18.244,18.244,0,0,1,5.007.607,4.96,4.96,0,0,0-1.1.64,8.443,8.443,0,0,0-9.045,3.792l-3.259-2.143v-.256a3.419,3.419,0,0,0-2.533-3.3L17,131.167l-1.9-3.135A1.9,1.9,0,0,0,12,127.826l-2.288,2.851a3.006,3.006,0,0,0-.65,1.593L7.812,144.936A6.15,6.15,0,0,1,4.528,149.8L.365,151.973a.659.659,0,0,0,.3,1.243H16.948a4.714,4.714,0,0,0,4.708-4.708v-.462h4.672a8.4,8.4,0,0,0,5.628,2.285H32.1a8.368,8.368,0,0,0,5.763-2.287h4.464a2.118,2.118,0,0,0,2.083-1.882l1.511-1.891h4.436a.659.659,0,0,0,.653-.745c0-.05,0-.119,0-.206h1.884a8.462,8.462,0,0,0,8.182,7.008h.144A8.446,8.446,0,0,0,62,133.475v-.755h4.361l5.98,7.756v2.818a.659.659,0,0,0,.659.659h7.47a.657.657,0,0,0,.318-.082l1.887-1.039a.66.66,0,0,0,.341-.577v-2a.662.662,0,0,0-.661-.659Zm-1.891,0H78.339v-3.737a.659.659,0,0,0-1.317,0v3.679l-.974-1.288v-10.4l4.42,1.9Zm-7.142,0-7.878-10.217a.658.658,0,0,0-.522-.256h0l-3.608.019a.637.637,0,0,0-.169-.015l-.135.017-14.747.077V127.51H66.282l9.131,12.082Zm-30.34,4.281V142.56h1.961v.824l-.963,1.2a2.109,2.109,0,0,0-1-.715Zm.162-3.825a.659.659,0,0,0,.659-.659v-1.8h1.139v3.652H42.985v-1.194Zm-1.8-17.5h3.6v3.647H40.224Zm3.488-11.356h.114v10.039h-3.2Zm29.9,25.313-6.8-8.993h6.8ZM64.547,120.4a.543.543,0,1,1,1.087,0v5.79H64.546Zm-18.284,5.79v-3.647H53.59v3.647Zm7.327-4.964H46.263V111.19h4.77l1.331,1.722a.657.657,0,0,0,.521.256h.706ZM45,108.456h9.446v3.394h-1.24l-1.331-1.722a.657.657,0,0,0-.521-.256H45v-1.416ZM39.991,127.51h4.955v1.265H39.991Zm4.954,7.081v1.681H43.806V134.59Zm-2.457-2.2v6.336H41.8a7.864,7.864,0,0,0-4.6-6.336ZM37.1,133.829a6.736,6.736,0,0,1,3.468,5.622.658.658,0,0,0,.655.6h.448v3.707H40.33a8.506,8.506,0,0,0,.214-1.732,8.443,8.443,0,0,0-4.936-7.824,6.052,6.052,0,0,1,1.488-.369Zm-5,.92h.116A7.133,7.133,0,0,1,39.225,142a7.217,7.217,0,0,1-.25,1.754h-3.31a4.031,4.031,0,0,0-7.058-3.894l-2.581-1.7a7.171,7.171,0,0,1,6.069-3.413Zm2.132,8.807L29.7,140.582a2.717,2.717,0,1,1,4.523,2.974Zm-2.1.2H30.055l-8.4-5.6v-1.283Zm-10.476-4.021L23.7,141.1c-.02.215-.048.428-.052.646a8.432,8.432,0,0,0,.214,2.013h-2.2Zm3.56,4.021a7.121,7.121,0,0,1-.248-1.811l2.715,1.811ZM5.136,150.968a7.461,7.461,0,0,0,3.985-5.9L10.366,132.4a1.7,1.7,0,0,1,.366-.9l2.289-2.851a.585.585,0,0,1,.957.063l1.939,3.2V147.7a2.121,2.121,0,0,1-.924,1.752L11.408,151.9H3.355Zm15.2-2.462a3.4,3.4,0,0,1-3.391,3.391h-3.2l1.994-1.362a3.438,3.438,0,0,0,1.5-2.839v-15.1l1.547.414a2.1,2.1,0,0,1,1.555,2.027Zm11.639.506a7.1,7.1,0,0,1-3.462-.968h7.163A7,7,0,0,1,31.976,149.013Zm10.35-2.285H21.655v-1.656H42.326a.829.829,0,0,1,0,1.656Zm3.937-3.773V130.534l10.505-.055a13.52,13.52,0,0,0-4.37,3.34c-2.136,2.5-2.648,7.146-2.688,9.136ZM68.344,142a7.133,7.133,0,1,1-7.135-7.251h.122A7.141,7.141,0,0,1,68.344,142Zm-7.661-8.544a8.434,8.434,0,0,0-7.92,8.285c0,.089.008.175.009.264h-1.7c.172-2.028.732-5.467,2.325-7.329a11.586,11.586,0,0,1,2.175-1.957h5.108ZM57.936,131.4a13.51,13.51,0,0,1,3.179-.945l3.487-.019.743.963H57.936ZM81.7,141.864l-1.4.77H73.659V140.91H81.7Z" transform="translate(820.19 6678.861)" fill="#0a2c4a"/>
    <path id="Path_74" data-name="Path 74" d="M401.789,150.55c-1.218,0-2.171,1.291-2.171,2.94s.953,2.941,2.171,2.941,2.171-1.292,2.171-2.941S403.007,150.55,401.789,150.55Zm0,4.563c-.4,0-.854-.694-.854-1.623s.451-1.623.854-1.623.854.694.854,1.623S402.191,155.113,401.789,155.113Z" transform="translate(467.969 6640.598)" fill="#0a2c4a"/>
    <path id="Path_75" data-name="Path 75" d="M650.1,305.229a.659.659,0,0,0,.659-.659v-2.208a.659.659,0,1,0-1.317,0v2.208A.658.658,0,0,0,650.1,305.229Z" transform="translate(247.766 6507.368)" fill="#0a2c4a"/>
  </g>
</svg>
