<svg xmlns="http://www.w3.org/2000/svg" width="63.108" height="63.107" viewBox="0 0 63.108 63.107">
  <path id="linkedin" d="M58.556,0h-54A4.551,4.551,0,0,0,0,4.551v54a4.551,4.551,0,0,0,4.551,4.551h54a4.551,4.551,0,0,0,4.551-4.551v-54A4.551,4.551,0,0,0,58.556,0ZM22.385,47.7H14.7V24.581h7.685ZM18.542,21.424h-.05a4.005,4.005,0,1,1,.1-7.989,4.007,4.007,0,1,1-.051,7.989ZM50.094,47.7H42.41V35.332c0-3.108-1.113-5.228-3.893-5.228a4.207,4.207,0,0,0-3.943,2.81,5.263,5.263,0,0,0-.253,1.875V47.7H26.637s.1-20.951,0-23.12h7.684v3.274a7.629,7.629,0,0,1,6.925-3.816c5.056,0,8.847,3.3,8.847,10.406Zm0,0" fill="#6e8295"/>
</svg>
