<svg xmlns="http://www.w3.org/2000/svg" width="57.538" height="48.42" viewBox="0 0 57.538 48.42">
  <path id="Path_69" data-name="Path 69" d="M115.207,92.541a3.341,3.341,0,1,0,3.341,3.341A3.345,3.345,0,0,0,115.207,92.541Zm0,4.885a1.544,1.544,0,1,1,1.544-1.544A1.545,1.545,0,0,1,115.207,97.425ZM107,92.541a3.341,3.341,0,1,0,3.341,3.341A3.345,3.345,0,0,0,107,92.541Zm0,4.885a1.544,1.544,0,1,1,1.544-1.544A1.545,1.545,0,0,1,107,97.425Zm24.609-4.885a3.341,3.341,0,1,0,3.341,3.341A3.345,3.345,0,0,0,131.613,92.541Zm0,4.885a1.544,1.544,0,1,1,1.544-1.544A1.545,1.545,0,0,1,131.613,97.425Zm-8.2-4.885a3.341,3.341,0,1,0,3.341,3.341A3.345,3.345,0,0,0,123.41,92.541Zm0,4.885a1.544,1.544,0,1,1,1.544-1.544A1.545,1.545,0,0,1,123.41,97.425Zm12.308-6.854c0-.023.007-.044.007-.067V82.77a.9.9,0,0,0-.9-.9h-13.2V68.114a.9.9,0,0,0-.9-.9H110.574a.9.9,0,0,0-.737.385L108.8,69.095,96.4,55.431a4.385,4.385,0,0,0-7.323.616s-.005.008-.008.013L81.542,71.516a2.745,2.745,0,0,0-.4,1.261.892.892,0,0,0-.018.181v9.9a7.035,7.035,0,0,0,7.028,7.028h9.62a.9.9,0,0,0,.7-1.459L86.721,73.671l6.776-10.6,9.4,15.041v12.4c0,.023.005.045.007.067a6.27,6.27,0,0,0,3.33,11.586h26.16a6.27,6.27,0,0,0,3.329-11.586ZM97.238,59.033l10.5,11.575-3.908,5.61L94.966,62.024a4.4,4.4,0,0,0,2.272-2.991Zm7.453,19.1,4.287-6.154h7.012V80.6h-11.3Zm-11.75-22.6a2.578,2.578,0,0,1,1.76.7l.26.287a2.567,2.567,0,0,1,.574,1.608,2.6,2.6,0,1,1-2.6-2.6ZM83.9,71.977a.98.98,0,1,1-.98.98.963.963,0,0,1,.04-.261s.006-.008.008-.012l.154-.316a.977.977,0,0,1,.778-.391ZM95.91,88.087H88.155a5.236,5.236,0,0,1-5.23-5.23V75.547a2.7,2.7,0,0,0,2.673-.4Zm-9.8-16.8a2.762,2.762,0,0,0-1.932-1.081l4.88-10.025a4.407,4.407,0,0,0,2.75,2.188ZM104.691,82.4h12.2a.9.9,0,0,0,.9-.9V71.078a.9.9,0,0,0-.9-.9h-6.658l.813-1.167h8.789V82.768a.9.9,0,0,0,.9.9h13.2V89.8a6.254,6.254,0,0,0-1.539-.2H106.23a6.234,6.234,0,0,0-1.539.2Zm27.7,17.961H106.23a4.478,4.478,0,0,1,0-8.957h26.16a4.478,4.478,0,0,1,0,8.957ZM113.965,84.237a.9.9,0,0,1,.9-.9h2.026a.9.9,0,0,1,0,1.8h-2.026A.9.9,0,0,1,113.965,84.237Z" transform="translate(-81.127 -53.739)" fill="#0a2c4a"/>
</svg>
