<svg xmlns="http://www.w3.org/2000/svg" width="220.083" height="66" viewBox="0 0 220.083 66">
  <path id="Ashok_Leyland-Logo.wine" d="M109.984.01A22.026,22.026,0,0,0,90.715,12.3c-2.485,5.061-2.685,12.951-.444,17.83a22.894,22.894,0,0,0,16.434,12.754c16.543,2.7,30.111-13.3,24.387-28.744C129.061,8.658,123.4,2.993,118.211,1.258A23.739,23.739,0,0,0,109.984.01Zm-.169,2.453c1.253.047,1.465.53.106,1.29A24.764,24.764,0,0,0,102.2,11.6a27.449,27.449,0,0,0-2.559,6.514l-.783,3.448L97.78,19.87c-1.521-2.344-2.772-7.743-2.263-9.772.579-2.309,6.54-6.231,11.02-7.234a13.812,13.812,0,0,1,3.278-.4Zm11.717,4.124c.943.041,1.681.585,2.961,1.946a25.848,25.848,0,0,1,3.723,5.753,13.7,13.7,0,0,1,1.417,5.626l-.212,2.094-2.644-3.173a23,23,0,0,0-11.971-7.762c-5.023-1.205-3.39-2.469,5.69-4.378a4.134,4.134,0,0,1,1.036-.106Zm-11.146,5.436c4.71-.159,9.9,4.677,9.9,9.56a10.348,10.348,0,0,1-5.14,8.27c-3.223,1.848-5.965,1.927-9.074.275-8.584-4.562-6.4-16.206,3.384-18A6.329,6.329,0,0,1,110.386,12.023Zm-3.49,3.151-.254.952h1.544l-2.559,8.4-.4.465-.781.134-.723,1.534,12.184.025,2.2-5.309-1.481.021-.486,1.544a5.115,5.115,0,0,1-.991,1.787,7.2,7.2,0,0,1-2.746.284l-2.275-.039,2.459-8.694,1.65-.021.254-1.058ZM91.181,21.139l3.49,3.807c3.658,4,8.072,6.7,12.289,7.487,1.375.258,2.5.7,2.5.994s-1.2,1.014-2.686,1.607c-4.824,1.93-7.595,2.061-9.624.465-2.379-1.871-5.965-9.121-5.965-12.056Zm30.859,1.417c.894-.1,2.993,4.322,3.448,8.164.359,3.034.284,3.2-2.348,5.288a26.247,26.247,0,0,1-4.992,3.109,28.987,28.987,0,0,1-5.2,1.4L110,41l4.7-4.632c4.555-4.5,6.937-8.812,6.937-12.542C121.638,22.978,121.789,22.585,122.04,22.556ZM23.879,52.844l-1.713.4a3.933,3.933,0,0,0-1.4.719,6.447,6.447,0,0,0-.761,1.5,5.973,5.973,0,0,0-.444,1.777,10.5,10.5,0,0,0,.825,2.242,2.6,2.6,0,0,0,1.734,1.354c3.383.062,9.031.127,9.031.127a2.779,2.779,0,0,1,.444.381,1.493,1.493,0,0,1,.275.613,1.7,1.7,0,0,1-.169.8,1.813,1.813,0,0,1-.55.465H19.734v.55a2.05,2.05,0,0,0,.677,1.4s.589.767.952.761c0,0,8.841.067,12.775-.021.324-.007.556-.352.787-.647a5.236,5.236,0,0,0,.524-1.088,12.677,12.677,0,0,0-.085-4.463c-.144-.266-.317-.936-.571-1.1a2.9,2.9,0,0,0-1.015-.486s-6.916-.035-9.75-.042c-.352,0-.264-.795-.25-1.147.014-.369-.014-1.172.356-1.18C27.38,55.7,35.3,55.742,35.3,55.742V54.727a3.531,3.531,0,0,0-.529-.931,5.135,5.135,0,0,0-1.311-.74,5.742,5.742,0,0,0-1.629-.212Zm14.129,0V65.937h3.976V60.987h8.143v4.949h4.124V52.844s-1,.143-1.683.283a4.146,4.146,0,0,0-1.781.77,3.694,3.694,0,0,0-.647,1.6l-.013,2.36H41.984v-2.2s.054-1.536-.4-2.03a2.615,2.615,0,0,0-1.607-.529c-.558-.064-1.967-.254-1.967-.254Zm62.268,0V65.937h12.86V62.552H104c.043-2.835.057-5.668,0-8.5-.471-.664-.845-.552-1.4-.846a8.834,8.834,0,0,0-2.319-.36Zm49.408.3v12.8h12.86V62.552h-8.735s-.087-2.892-.212-8.27c-.015-.63-1.425-1.01-2.052-1.079-.559-.061-1.861-.063-1.861-.063Zm-90.758-.3c-.45,0-1.468.861-1.756,1.142a3.452,3.452,0,0,0-.825,1.607c-.064,2.622-.068,5.245-.063,7.868a2.67,2.67,0,0,0,.8,1.459c.336.371.937,1.009,1.438,1.015,4.293-.054,8.589.1,12.881,0a2.91,2.91,0,0,0,1.481-.825,4.145,4.145,0,0,0,.969-1.315c.032-1.344.025-4.332.025-4.332s.02-1.931-.042-3.786a4.109,4.109,0,0,0-.635-1.9,3.2,3.2,0,0,0-1.5-.931c-3.36-.009-8.745-.006-12.775,0Zm124.6.212V65.937h4.251v-9.37l7.487,9.37h5.859V53.077h-4.061V61.9a107.818,107.818,0,0,0-7.383-8.157c-.618-.634-3.1-.654-3.1-.654Zm-13.283,0-7.086,12.881h4.653l1.354-2.073,7.424.042L177.962,66l4.315-.063-.212-.592c-2.013-4.143-4.211-8.2-6.324-12.289ZM75.91,52.844V65.937h4.061V61.2h.719a14.811,14.811,0,0,1,3.828,2.369l3.088,2.369h5.541l-2.665-2.2c-1.465-1.21-3.29-2.69-4.04-3.3l-1.354-1.121,3.363-3.088,3.312-3.384H86.672l-2.724,2.6a11.628,11.628,0,0,1-3.3,2.369h-.677v-4.97Zm127.243.233v12.86c4.815-.036,9.631.054,14.446,0a2.843,2.843,0,0,0,1.586-.761,2.518,2.518,0,0,0,.888-1.481c-.007-2.714.025-5.429,0-8.143a2.73,2.73,0,0,0-.8-1.481,2.459,2.459,0,0,0-1.428-.912Zm-54.844.063h-4.167l-4.611,4.611-2.327-2.39-2.094-2.221h-4.526l3.511,4.315,3.405,4.019v4.463h4.061V61.474l3.405-4.336Zm-18.93.127s-8.526.082-12.267.085a2.681,2.681,0,0,0-1.227.4,2.225,2.225,0,0,0-.7,1.163l-.021,11.02h14.213V62.552H119.227V60.878h10.152V58.12H119.227V56.4h10.152ZM6.789,52.844,0,65.937l4.336.021,1.142-2.052,7.868-.021c.478.872.7,1.287,1.163,2.052h4.822L12.606,52.844Zm166.075,3.384,1.967,4.294h-4.209ZM9.712,56.1l2.027,4.421L7.318,60.5c.887-1.574,1.225-2.563,2.394-4.4Zm205.306.276a2.7,2.7,0,0,1,.486.36,2.886,2.886,0,0,1,.3.635v4.547a3.34,3.34,0,0,1-.275.4,3.166,3.166,0,0,1-.381.3h-7.931V56.4ZM62.5,56.736q2.951,0,5.9,0c.635.025.84.125.952.309a4.155,4.155,0,0,1,.148,1.489c-.009.79-.016,2.314-.034,3.11,0,0,.014.544-.119.68a2.635,2.635,0,0,1-.865.2h-6.4c-1.373.082-1.451-.433-1.528-1.1-.005-.77,0-1.245.017-2.661.036-1.333-.153-1.906.885-2.022a8.133,8.133,0,0,1,1.04-.008Z" fill="#016fb6"/>
</svg>
